<svg width="25" height="24" viewBox="0 0 25 24" fill="none" xmlns="http://www.w3.org/2000/svg">
<path d="M2.01869 8V6C2.01869 3.79086 3.82629 2 6.05608 2H8.07477M16.1495 2H18.1682C20.398 2 22.2056 3.79086 22.2056 6V8M22.2056 15.9444V18C22.2056 20.2091 20.398 22 18.1682 22H16.1495M8.07477 22H6.05608C3.82629 22 2.01869 20.2091 2.01869 18V15.9444M7.06542 12H17.1589M16.1495 9.5V7.5M12.1121 9.5V7.5M8.07477 9.5V7.5M12.1121 16.5V14.5M16.1495 16.5V14.5M8.07477 16.5V14.5" stroke="#737373" stroke-width="1.5" stroke-linecap="round" stroke-linejoin="round"/>
</svg>
